<svg xmlns="http://www.w3.org/2000/svg" width="40" height="40" viewBox="0 0 40 40">
    <g>
        <path fill="#fff" d="M0 0H40V40H0z" opacity="0.003" transform="translate(10.999 12) translate(-10.999 -12)"/>
        <g>
            <path fill="#e2e3ed" d="M0 0H9.482V9.482H0z" transform="translate(10.999 12) translate(5.867 4.444)"/>
            <path fill="#757575" fill-rule="evenodd" d="M12.508 2.409a1.809 1.809 0 0 1 1.212.455 1.471 1.471 0 0 1 .5 1.09v8.717a1.484 1.484 0 0 1-.5 1.1 1.8 1.8 0 0 1-1.206.451H4.927a1.806 1.806 0 0 1-1.212-.455 1.477 1.477 0 0 1-.5-1.09V3.959a1.482 1.482 0 0 1 .5-1.1 1.806 1.806 0 0 1 1.213-.449h7.58zM0 8.726V1.55A1.485 1.485 0 0 1 .5.45 1.808 1.808 0 0 1 1.712 0H9.3c.985 0 1.14 1.153 0 1.176H1.714a.429.429 0 0 0-.291.112.355.355 0 0 0-.123.263v7.174a.655.655 0 1 1-1.3 0zm12.921 3.948V3.957a.354.354 0 0 0-.124-.263.442.442 0 0 0-.292-.111h-7.58a.434.434 0 0 0-.291.112.355.355 0 0 0-.123.263v8.717a.356.356 0 0 0 .124.263.436.436 0 0 0 .291.111h7.584a.437.437 0 0 0 .291-.112.355.355 0 0 0 .123-.263z" transform="translate(10.999 12) translate(1.889 0.889)"/>
        </g>
    </g>
</svg>
