<svg xmlns="http://www.w3.org/2000/svg" width="20" height="24" viewBox="0 0 20 24">
    <g>
        <g>
            <g>
                <g>
                    <path fill="#fff" d="M951.723 23.56s-5.551-1.588-7.249 4.561 0 4 0 4l-1.514 5.4-.86 2.329 12.458-1.111 1.724-12.616z" transform="translate(-1124.863 -19.999) translate(-4) translate(188)"/>
                    <path fill="#757575" d="M20 6a1.959 1.959 0 0 0-2 1.895v.887a6.9 6.9 0 0 0-3.3 1.693 6.829 6.829 0 0 0-2.031 5.039v4.926a7.911 7.911 0 0 1-1.359 3.722l-1.2 1.7a.612.612 0 0 0 .185.876.689.689 0 0 0 .369.106h6a3.338 3.338 0 0 0 6.667 0h6a.65.65 0 0 0 .669-.633.61.61 0 0 0-.112-.351L28.7 24.168a7.583 7.583 0 0 1-1.362-3.639V15.6A6.793 6.793 0 0 0 22 8.806v-.911A1.959 1.959 0 0 0 20 6zm0 1.263a.648.648 0 0 1 .667.632v.7c-.148-.011-.293-.027-.444-.031A.7.7 0 0 0 20 8.526a.69.69 0 0 0-.212.036c-.154 0-.3.018-.455.028v-.7A.648.648 0 0 1 20 7.263zm0 2.526c3.674 0 6.8 13.844-7.57 15.054A8.7 8.7 0 0 0 14 20.44v-4.927a5.566 5.566 0 0 1 1.645-4.149A6.133 6.133 0 0 1 20 9.789zm-2 17.053h4a2 2 0 0 1-4 0z" transform="translate(-1124.863 -19.999) translate(-4) translate(188) translate(930.863 13.999)"/>
                </g>
            </g>
        </g>
    </g>
</svg>
