<svg xmlns="http://www.w3.org/2000/svg" width="28" height="28" viewBox="0 0 28 28">
  <defs>
    <style>
      .cls-1 {
        fill: none;
      }

      .cls-2 {
        fill: #6b6b6b;
      }

      .cls-3 {
        fill: #fff;
      }
    </style>
  </defs>
  <g id="Icon_Perm_Identity_Rounded" data-name="Icon / Perm Identity / Rounded" transform="translate(-8 -7)">
    <g id="그룹_3802" data-name="그룹 3802">
      <rect id="Box" class="cls-1" width="28" height="28" transform="translate(8 7)"/>
      <g id="그룹_3491" data-name="그룹 3491" transform="translate(-266.788 -399.812)">
        <path id="패스_24083" data-name="패스 24083" class="cls-2" d="M288.788,422.312c-4.05,0-12,1.95-12,6v3a1.613,1.613,0,0,0,1.5,1.5h21a1.615,1.615,0,0,0,1.5-1.5v-3C300.788,424.262,292.838,422.312,288.788,422.312Z"/>
        <path id="패스_24084" data-name="패스 24084" class="cls-2" d="M288.788,410.224a4.587,4.587,0,1,1-4.588,4.588A4.588,4.588,0,0,1,288.788,410.224Z"/>
        <path id="패스_24085" data-name="패스 24085" class="cls-2" d="M288.788,420.812a6,6,0,1,0-6-6A6,6,0,0,0,288.788,420.812Z"/>
        <path id="패스_24086" data-name="패스 24086" class="cls-3" d="M314.028,416.71c-3.308,0-9.232,7.161,8.575,7.2a1.228,1.228,0,0,0,1.225-1.028v-2.057C323.828,418.047,317.335,416.71,314.028,416.71Z" transform="translate(-25.24 7.253)"/>
        <path id="패스_24087" data-name="패스 24087" class="cls-3" d="M286.781,416.8a3.993,3.993,0,1,0-3.993-3.993A3.993,3.993,0,0,0,286.781,416.8Z" transform="translate(2.007 2.007)"/>
      </g>
    </g>
  </g>
</svg>
