<svg xmlns="http://www.w3.org/2000/svg" id="icon_text" width="19.083" height="21.001" viewBox="0 0 19.083 21.001">
    <defs>
        <style>
            .cls-1{fill:#fff}.cls-2{fill:#757575}.cls-3{fill:none;stroke:#707070;stroke-linecap:round}.cls-4,.cls-5{stroke:none}.cls-5{fill:#757575}
        </style>
    </defs>
    <g id="그룹_5203" transform="translate(1.857)">
        <g id="빼기_1" class="cls-1">
            <path d="M15 18.5H2c-.827 0-1.5-.673-1.5-1.5V2C.5 1.173 1.173.5 2 .5h10.347L16.5 4.757V17c0 .827-.673 1.5-1.5 1.5z" class="cls-4" transform="translate(0.143)"/>
            <path d="M15 18c.552 0 1-.449 1-1V4.96L12.136 1H2c-.551 0-1 .449-1 1v15c0 .551.449 1 1 1h13m0 1H2c-1.103 0-2-.897-2-2V2C0 .897.897 0 2 0h10.558L17 4.553V17c0 1.103-.897 2-2 2z" class="cls-5" transform="translate(0.143)"/>
        </g>
        <path id="패스_35" d="M0 0l5.194 5.194h-3.71A1.484 1.484 0 0 1 0 3.71z" class="cls-2" transform="translate(12.033 0)"/>
        <path id="선_192" d="M0 0L6.06 0" class="cls-3" transform="translate(3.809 4.761)"/>
        <path id="선_193" d="M0 0L9.522 0" class="cls-3" transform="translate(3.809 8.224)"/>
        <path id="선_194" d="M0 0L9.522 0" class="cls-3" transform="translate(3.809 11.687)"/>
        <path id="선_195" d="M0 0L9.522 0" class="cls-3" transform="translate(3.809 15.149)"/>
    </g>
    <g id="icon_text-2" transform="translate(0 1.857)">
        <g id="빼기_1-2" class="cls-1">
            <path d="M15 18.5H2c-.827 0-1.5-.673-1.5-1.5V2C.5 1.173 1.173.5 2 .5h10.347L16.5 4.757V17c0 .827-.673 1.5-1.5 1.5z" class="cls-4" transform="translate(0 0.144)"/>
            <path d="M15 18c.552 0 1-.449 1-1V4.96L12.136 1H2c-.551 0-1 .449-1 1v15c0 .551.449 1 1 1h13m0 1H2c-1.103 0-2-.897-2-2V2C0 .897.897 0 2 0h10.558L17 4.553V17c0 1.103-.897 2-2 2z" class="cls-5" transform="translate(0 0.144)"/>
        </g>
        <path id="패스_35-2" d="M0 0l5.194 5.194h-3.71A1.484 1.484 0 0 1 0 3.71z" class="cls-2" transform="translate(12.033 0)"/>
        <path id="선_192-2" d="M0 0L6.06 0" class="cls-3" transform="translate(4.4 5.344)"/>
        <path id="선_193-2" d="M0 0L8.225 0" class="cls-3" transform="translate(4.4 8.329)"/>
        <path id="선_194-2" d="M0 0L8.225 0" class="cls-3" transform="translate(4.4 11.314)"/>
        <path id="선_195-2" d="M0 0L8.225 0" class="cls-3" transform="translate(4.4 14.3)"/>
    </g>
</svg>
