<svg xmlns="http://www.w3.org/2000/svg" width="23.044" height="21" viewBox="0 0 23.044 21">
    <defs>
        <filter id="사각형_981" width="18" height="17" x="0" y="2.5" filterUnits="userSpaceOnUse">
            <feOffset dx="1" dy="1"/>
            <feGaussianBlur result="blur" stdDeviation="1"/>
            <feFlood flood-opacity=".6"/>
            <feComposite in2="blur" operator="in"/>
            <feComposite in="SourceGraphic"/>
        </filter>
        <style>
            .cls-2{fill:#21a366}.cls-3{fill:#107c41}.cls-4{fill:#185c37}
        </style>
    </defs>
    <g id="icon_icon_excel" transform="translate(2)">
        <g id="그룹_5917" transform="translate(-166 -232.5)">
            <g id="그룹_5917-2" transform="translate(-999 -452.5)">
                <rect id="사각형_974" width="18.044" height="21" fill="#33c481" rx="2" transform="translate(1168 685)"/>
                <path id="사각형_975" d="M0 0H9.022V5H0z" class="cls-2" transform="translate(1177.022 690)"/>
                <path id="사각형_976" d="M0 0H9.022V5.5H0z" class="cls-3" transform="translate(1177.022 695)"/>
                <path id="사각형_977" d="M0 0H9.022V5.5H0z" class="cls-4" transform="translate(1168 695)"/>
                <path id="사각형_979" d="M0 0h18.044v3.5a2 2 0 0 1-2 2H2a2 2 0 0 1-2-2V0z" class="cls-4" transform="translate(1168 700.5)"/>
                <path id="사각형_978" d="M0 0H9.022V5.5H0z" class="cls-3" transform="translate(1168 689.5)"/>
                <path id="사각형_980" d="M2 0h7.022v5H0V2a2 2 0 0 1 2-2z" class="cls-2" transform="translate(1168 685)"/>
            </g>
            <g filter="url(#사각형_981)" transform="matrix(1, 0, 0, 1, 164, 232.5)">
                <rect id="사각형_981-2" width="12" height="11" fill="#127f45" rx="1" transform="translate(2 4.5)"/>
            </g>
            <path id="패스_25957" fill="#fff" d="M.18 0h1.152l.876-1.524c.228-.4.444-.792.672-1.164h.06c.24.372.468.768.7 1.164L4.6 0h1.2L3.648-3.288l1.98-3.228h-1.14l-.8 1.44C3.492-4.7 3.3-4.368 3.1-4h-.052C2.82-4.368 2.6-4.7 2.4-5.076l-.876-1.44H.348L2.328-3.4z" transform="translate(169 246)"/>
        </g>
    </g>
</svg>
