<svg xmlns="http://www.w3.org/2000/svg" width="22" height="22" viewBox="0 0 22 22">
    <g fill="#fff">
        <path d="M16 21.5H4C2.07 21.5.5 19.93.5 18V4C.5 2.07 2.07.5 4 .5h10.565L19.5 5.478V18c0 1.93-1.57 3.5-3.5 3.5z" transform="translate(2)"/>
        <path fill="#757575" d="M16 21c1.654 0 3-1.346 3-3V5.684L14.357 1H4C2.346 1 1 2.346 1 4v14c0 1.654 1.346 3 3 3h12m0 1H4c-2.206 0-4-1.795-4-4V4c0-2.206 1.794-4 4-4h10.774L20 5.272V18c0 2.205-1.794 4-4 4z" transform="translate(2)"/>
    </g>
    <path fill="#ff2f2f" d="M0 0H18V10H0z" transform="translate(0 9)"/>
    <text fill="#fff" font-family="Helvetica-Bold, Helvetica" font-size="7px" font-weight="700" transform="translate(2 17)">
        <tspan x="0" y="0">PDF</tspan>
    </text>
    <path fill="#757575" d="M0 0l6 6H1.714A1.714 1.714 0 0 1 0 4.285z" transform="translate(16 0)"/>
</svg>
