<svg xmlns="http://www.w3.org/2000/svg" id="icon_Gzip" width="40" height="42" viewBox="0 0 20 22">
    <defs>
        <style>
            .cls-2{fill:#757575}
        </style>
    </defs>
    <g id="빼기_1" fill="#fff" stroke="none">
        <path d="M16-117.5H4c-1.93 0-3.5-1.57-3.5-3.5v-14c0-1.93 1.57-3.5 3.5-3.5h10.565l4.935 4.978V-121c0 1.93-1.57 3.5-3.5 3.5z" transform="translate(0 139)"/>
        <path fill="#757575" d="M16-118c1.654 0 3-1.346 3-3v-12.316L14.357-138H4c-1.654 0-3 1.346-3 3v14c0 1.654 1.346 3 3 3h12m0 1H4c-2.206 0-4-1.794-4-4v-14c0-2.205 1.794-4 4-4h10.774L20-133.727V-121c0 2.206-1.794 4-4 4z" transform="translate(0 139)"/>
    </g>
    <path id="패스_35" d="M0 0l6 6H1.714A1.714 1.714 0 0 1 0 4.285z" class="cls-2" transform="translate(14 0)"/>
    <path id="빼기_29" d="M0-125h20v6a4 4 0 0 1-4 4H4a4 4 0 0 1-4-4z" class="cls-2" transform="translate(0 137)"/>
    <text id="Html" fill="#9fd4ff" font-family="Helvetica-Bold, Helvetica" font-size="6px" font-weight="700" letter-spacing="-0.025em" transform="translate(2 19.001)">
        <tspan x="0" y="0">HTML</tspan>
    </text>
    <text id="_" fill="#757575" font-family="Helvetica-Bold, Helvetica" font-size="7px" font-weight="700" letter-spacing="-0.05em" transform="translate(3.5 9.5)">
        <tspan x="0" y="0">&lt; / &gt;</tspan>
    </text>
</svg>
