<svg xmlns="http://www.w3.org/2000/svg" width="40" height="42" viewBox="0 0 20 22">
    <g fill="#fff">
        <path d="M16-117.5H4c-1.93 0-3.5-1.57-3.5-3.5v-14c0-1.93 1.57-3.5 3.5-3.5h10.565l4.935 4.978V-121c0 1.93-1.57 3.5-3.5 3.5z" transform="translate(0 139)"/>
        <path fill="#757575" d="M16-118c1.654 0 3-1.346 3-3v-12.316L14.357-138H4c-1.654 0-3 1.346-3 3v14c0 1.654 1.346 3 3 3h12m0 1H4c-2.206 0-4-1.794-4-4v-14c0-2.205 1.794-4 4-4h10.774L20-133.727V-121c0 2.206-1.794 4-4 4z" transform="translate(0 139)"/>
    </g>
    <path fill="#757575" d="M0 0l6 6H1.714A1.714 1.714 0 0 1 0 4.285z" transform="translate(14 0)"/>
</svg>
